{"title":"The Hunger Games (2012) BRrip 720p x264 Dual Audio [Eng DD 5.1-H","uid":10427046,"size":1724574400,"categoryP":"video","categoryS":"hd___movies","magnet":"?xt=urn:btih:590186f9df6aa0ca5b25327e2b1cf7eccced87f6&amp;dn=The+Hunger+Games+%282012%29+BRrip+720p+x264+Dual+Audio+%5BEng+DD+5.1-H&amp;tr=udp%3A%2F%2Ftracker.openbittorrent.com%3A80&amp;tr=udp%3A%2F%2Fopen.demonii.com%3A1337&amp;tr=udp%3A%2F%2Ftracker.coppersurfer.tk%3A6969&amp;tr=udp%3A%2F%2Fexodus.desync.com%3A6969","seeders":8,"leechers":1,"uploader":"Xdesiars","files":4,"time":1403717844,"description":"ormat                                   : Matroska\nFormat version                           : Version 2\nFile size                                : 1.60 GiB\nDuration                                 : 2h 22mn\nOverall bit rate                         : 1 603 Kbps\nMovie name                               : The Hunger Games (2012) by XdesiArsenal [ExD-XMR]\nEncoded date                             : UTC 2014-06-21 17:47:58\nWriting application                      : mkvmerge v5.0.1 ('Es ist Sommer') built on Nov 23 2011 20:48:57\nWriting library                          : libebml v1.2.2 + libmatroska v1.3.0\n\nVideo\nID                                       : 1\nFormat                                   : AVC\nFormat/Info                              : Advanced Video Codec\nFormat profile                           : &lt;a class=&quot;__cf_email__&quot; href=&quot;/cdn-cgi/l/email-protection&quot; data-cfemail=&quot;e2aa8b858aa2aed1ccd3&quot;&gt;[email&amp;#160;protected]&lt;/a&gt;&lt;script cf-hash='f9e31' type=&quot;text/javascript&quot;&gt;\n/* &lt;![CDATA[ */!function(){try{var t=&quot;currentScript&quot;in document?document.currentScript:function(){for(var t=document.getElementsByTagName(&quot;script&quot;),e=t.length;e--;)if(t[e].getAttribute(&quot;cf-hash&quot;))return t[e]}();if(t&amp;&amp;t.previousSibling){var e,r,n,i,c=t.previousSibling,a=c.getAttribute(&quot;data-cfemail&quot;);if(a){for(e=&quot;&quot;,r=parseInt(a.substr(0,2),16),n=2;a.length-n;n+=2)i=parseInt(a.substr(n,2),16)^r,e+=String.fromCharCode(i);e=document.createTextNode(e),c.parentNode.replaceChild(e,c)}}}catch(u){}}();/* ]]&gt; */&lt;/script&gt;\nFormat settings, CABAC                   : Yes\nFormat settings, ReFrames                : 4 frames\nMuxing mode                              : Header stripping\nCodec ID                                 : V_MPEG4/ISO/AVC\nDuration                                 : 2h 22mn\nBit rate                                 : 1 315 Kbps\nWidth                                    : 1 280 pixels\nHeight                                   : 528 pixels\nDisplay aspect ratio                     : 2.40:1\nFrame rate mode                          : Constant\nFrame rate                               : 23.976 fps\nColor space                              : YUV\nChroma subsampling                       : 4:2:0\nBit depth                                : 8 bits\nScan type                                : Progressive\nBits/(Pixel*Frame)                       : 0.081\nStream size                              : 1.31 GiB (82%)\nTitle                                    : The Hunger Games (2012) by XdesiArsenal [ExD-XMR]\nWriting library                          : x264 core 112\nLanguage                                 : English\nDefault                                  : Yes\nForced                                   : No\nColor primaries                          : BT.709\nTransfer characteristics                 : BT.709\nMatrix coefficients                      : BT.709\n\nAudio #1\nID                                       : 2\nFormat                                   : AC-3\nFormat/Info                              : Audio Coding 3\nMode extension                           : CM (complete main)\nFormat settings, Endianness              : Big\nMuxing mode                              : Header stripping\nCodec ID                                 : A_AC3\nDuration                                 : 2h 22mn\nBit rate mode                            : Constant\nBit rate                                 : 128 Kbps\nChannel(s)                               : 6 channels\nChannel positions                        : Front: L C R, Side: L R, LFE\nSampling rate                            : 48.0 KHz\nBit depth                                : 16 bits\nCompression mode                         : Lossy\nDelay relative to video                  : 2s 0ms\nStream size                              : 131 MiB (8%)\nTitle                                    : XdesiArsenal DD 5.1\nLanguage                                 : Hindi\nDefault                                  : Yes\nForced                                   : No\n\nAudio #2\nID                                       : 3\nFormat                                   : AC-3\nFormat/Info                              : Audio Coding 3\nMode extension                           : CM (complete main)\nFormat settings, Endianness              : Big\nMuxing mode                              : Header stripping\nCodec ID                                 : A_AC3\nDuration                                 : 2h 22mn\nBit rate mode                            : Constant\nBit rate                                 : 128 Kbps\nChannel(s)                               : 6 channels\nChannel positions                        : Front: L C R, Side: L R, LFE\nSampling rate                            : 48.0 KHz\nBit depth                                : 16 bits\nCompression mode                         : Lossy\nStream size                              : 131 MiB (8%)\nTitle                                    : XdesiArsenal DD 5.1\nLanguage                                 : English\nDefault                                  : No\nForced                                   : No\n\nMenu\n00:00:00.000                             : en:Chapter 1\n00:10:05.939                             : en:Chapter 2\n00:17:59.829                             : en:Chapter 3\n00:25:06.005                             : en:Chapter 4\n00:31:12.662                             : en:Chapter 5\n00:43:28.564                             : en:Chapter 6\n00:50:38.827                             : en:Chapter 7\n00:56:58.916                             : en:Chapter 8\n01:06:57.805                             : en:Chapter 9\n01:15:59.096                             : en:Chapter 10\n01:22:06.046                             : en:Chapter 11\n01:29:00.418                             : en:Chapter 12\n01:38:00.750                             : en:Chapter 13\n01:43:19.193                             : en:Chapter 14\n01:57:56.611                             : en:Chapter 15\n02:09:26.759                             : en:Chapter 16\n","torrent":{"xt":"urn:btih:590186f9df6aa0ca5b25327e2b1cf7eccced87f6","amp;dn":"The+Hunger+Games+%282012%29+BRrip+720p+x264+Dual+Audio+%5BEng+DD+5.1-H","amp;tr":["udp%3A%2F%2Ftracker.openbittorrent.com%3A80","udp%3A%2F%2Fopen.demonii.com%3A1337","udp%3A%2F%2Ftracker.coppersurfer.tk%3A6969","udp%3A%2F%2Fexodus.desync.com%3A6969"],"infoHash":"590186f9df6aa0ca5b25327e2b1cf7eccced87f6","infoHashBuffer":{"type":"Buffer","data":[89,1,134,249,223,106,160,202,91,37,50,126,43,28,247,236,204,237,135,246]},"announce":[],"urlList":[]}}